<mxfile host="app.diagrams.net" modified="2022-03-24T02:38:20.843Z" agent="5.0 (Macintosh; Intel Mac OS X 10_15_7) AppleWebKit/537.36 (KHTML, like Gecko) Chrome/99.0.4844.74 Safari/537.36" etag="ZuAGFQbF8WeIh0gI4K9f" version="17.1.3" type="github">
  <diagram id="R2lEEEUBdFMjLlhIrx00" name="Page-1">
    <mxGraphModel dx="1634" dy="741" grid="0" gridSize="10" guides="1" tooltips="1" connect="1" arrows="1" fold="1" page="0" pageScale="1" pageWidth="850" pageHeight="1100" math="0" shadow="0" extFonts="Permanent Marker^https://fonts.googleapis.com/css?family=Permanent+Marker">
      <root>
        <mxCell id="0" />
        <mxCell id="1" parent="0" />
        <mxCell id="RuCP6XWzuwosa6Kexjt9-1" value="上传组件" style="swimlane;fontStyle=0;childLayout=stackLayout;horizontal=1;startSize=30;horizontalStack=0;resizeParent=1;resizeParentMax=0;resizeLast=0;collapsible=1;marginBottom=0;fillColor=#dae8fc;strokeColor=#6c8ebf;fontSize=13;" vertex="1" parent="1">
          <mxGeometry x="-74" y="110" width="214" height="100" as="geometry" />
        </mxCell>
        <mxCell id="RuCP6XWzuwosa6Kexjt9-2" value="app\widgets\DocumentInserter" style="text;strokeColor=none;fillColor=none;align=left;verticalAlign=middle;spacingLeft=4;spacingRight=4;overflow=hidden;points=[[0,0.5],[1,0.5]];portConstraint=eastwest;rotatable=0;fontSize=13;" vertex="1" parent="RuCP6XWzuwosa6Kexjt9-1">
          <mxGeometry y="30" width="214" height="40" as="geometry" />
        </mxCell>
        <mxCell id="RuCP6XWzuwosa6Kexjt9-3" value="app\widgets\AttachmentInserter" style="text;strokeColor=none;fillColor=none;align=left;verticalAlign=middle;spacingLeft=4;spacingRight=4;overflow=hidden;points=[[0,0.5],[1,0.5]];portConstraint=eastwest;rotatable=0;fontSize=13;" vertex="1" parent="RuCP6XWzuwosa6Kexjt9-1">
          <mxGeometry y="70" width="214" height="30" as="geometry" />
        </mxCell>
        <mxCell id="RuCP6XWzuwosa6Kexjt9-5" value="BaseModel" style="swimlane;fontStyle=0;childLayout=stackLayout;horizontal=1;startSize=30;horizontalStack=0;resizeParent=1;resizeParentMax=0;resizeLast=0;collapsible=1;marginBottom=0;fillColor=#dae8fc;strokeColor=#6c8ebf;fontSize=13;" vertex="1" parent="1">
          <mxGeometry x="400" y="110" width="190" height="150" as="geometry" />
        </mxCell>
        <mxCell id="RuCP6XWzuwosa6Kexjt9-6" value="$document_list" style="text;strokeColor=none;fillColor=none;align=left;verticalAlign=middle;spacingLeft=4;spacingRight=4;overflow=hidden;points=[[0,0.5],[1,0.5]];portConstraint=eastwest;rotatable=0;fontSize=13;" vertex="1" parent="RuCP6XWzuwosa6Kexjt9-5">
          <mxGeometry y="30" width="190" height="20" as="geometry" />
        </mxCell>
        <mxCell id="RuCP6XWzuwosa6Kexjt9-15" value="$attachment_list" style="text;strokeColor=none;fillColor=none;align=left;verticalAlign=middle;spacingLeft=4;spacingRight=4;overflow=hidden;points=[[0,0.5],[1,0.5]];portConstraint=eastwest;rotatable=0;fontSize=13;" vertex="1" parent="RuCP6XWzuwosa6Kexjt9-5">
          <mxGeometry y="50" width="190" height="20" as="geometry" />
        </mxCell>
        <mxCell id="RuCP6XWzuwosa6Kexjt9-14" value="saveDocument" style="text;strokeColor=none;fillColor=none;align=left;verticalAlign=middle;spacingLeft=4;spacingRight=4;overflow=hidden;points=[[0,0.5],[1,0.5]];portConstraint=eastwest;rotatable=0;fontSize=13;" vertex="1" parent="RuCP6XWzuwosa6Kexjt9-5">
          <mxGeometry y="70" width="190" height="20" as="geometry" />
        </mxCell>
        <mxCell id="RuCP6XWzuwosa6Kexjt9-16" value="saveAttachment" style="text;strokeColor=none;fillColor=none;align=left;verticalAlign=middle;spacingLeft=4;spacingRight=4;overflow=hidden;points=[[0,0.5],[1,0.5]];portConstraint=eastwest;rotatable=0;fontSize=13;" vertex="1" parent="RuCP6XWzuwosa6Kexjt9-5">
          <mxGeometry y="90" width="190" height="20" as="geometry" />
        </mxCell>
        <mxCell id="RuCP6XWzuwosa6Kexjt9-17" value="getDocuments" style="text;strokeColor=none;fillColor=none;align=left;verticalAlign=middle;spacingLeft=4;spacingRight=4;overflow=hidden;points=[[0,0.5],[1,0.5]];portConstraint=eastwest;rotatable=0;fontSize=13;" vertex="1" parent="RuCP6XWzuwosa6Kexjt9-5">
          <mxGeometry y="110" width="190" height="20" as="geometry" />
        </mxCell>
        <mxCell id="RuCP6XWzuwosa6Kexjt9-7" value="getAttachments" style="text;strokeColor=none;fillColor=none;align=left;verticalAlign=middle;spacingLeft=4;spacingRight=4;overflow=hidden;points=[[0,0.5],[1,0.5]];portConstraint=eastwest;rotatable=0;fontSize=13;" vertex="1" parent="RuCP6XWzuwosa6Kexjt9-5">
          <mxGeometry y="130" width="190" height="20" as="geometry" />
        </mxCell>
        <mxCell id="RuCP6XWzuwosa6Kexjt9-30" style="rounded=0;jumpStyle=gap;orthogonalLoop=1;jettySize=auto;html=1;entryX=0.497;entryY=1.2;entryDx=0;entryDy=0;entryPerimeter=0;startArrow=none;startFill=0;endArrow=classic;endFill=1;fontSize=13;" edge="1" parent="1" source="RuCP6XWzuwosa6Kexjt9-8" target="RuCP6XWzuwosa6Kexjt9-7">
          <mxGeometry relative="1" as="geometry" />
        </mxCell>
        <mxCell id="RuCP6XWzuwosa6Kexjt9-8" value="渲染视图" style="swimlane;fontStyle=0;childLayout=stackLayout;horizontal=1;startSize=30;horizontalStack=0;resizeParent=1;resizeParentMax=0;resizeLast=0;collapsible=1;marginBottom=0;fillColor=#dae8fc;strokeColor=#6c8ebf;fontSize=13;" vertex="1" parent="1">
          <mxGeometry x="400" y="400" width="190" height="90" as="geometry" />
        </mxCell>
        <mxCell id="RuCP6XWzuwosa6Kexjt9-9" value="document/doc_list" style="text;strokeColor=none;fillColor=none;align=left;verticalAlign=middle;spacingLeft=4;spacingRight=4;overflow=hidden;points=[[0,0.5],[1,0.5]];portConstraint=eastwest;rotatable=0;fontSize=13;" vertex="1" parent="RuCP6XWzuwosa6Kexjt9-8">
          <mxGeometry y="30" width="190" height="30" as="geometry" />
        </mxCell>
        <mxCell id="RuCP6XWzuwosa6Kexjt9-10" value="attachment/attachment_list" style="text;strokeColor=none;fillColor=none;align=left;verticalAlign=middle;spacingLeft=4;spacingRight=4;overflow=hidden;points=[[0,0.5],[1,0.5]];portConstraint=eastwest;rotatable=0;fontSize=13;" vertex="1" parent="RuCP6XWzuwosa6Kexjt9-8">
          <mxGeometry y="60" width="190" height="30" as="geometry" />
        </mxCell>
        <mxCell id="RuCP6XWzuwosa6Kexjt9-19" style="edgeStyle=orthogonalEdgeStyle;rounded=0;orthogonalLoop=1;jettySize=auto;html=1;fontSize=13;" edge="1" parent="1" source="RuCP6XWzuwosa6Kexjt9-2">
          <mxGeometry relative="1" as="geometry">
            <mxPoint x="398" y="160" as="targetPoint" />
            <Array as="points">
              <mxPoint x="398" y="160" />
            </Array>
          </mxGeometry>
        </mxCell>
        <mxCell id="RuCP6XWzuwosa6Kexjt9-26" value="数据保存&lt;br style=&quot;font-size: 13px;&quot;&gt;$model-&amp;gt;document_list&lt;br style=&quot;font-size: 13px;&quot;&gt;$model-&amp;gt;attachment_list" style="shape=note;whiteSpace=wrap;html=1;backgroundOutline=1;darkOpacity=0.05;size=18;fillColor=#fff2cc;strokeColor=#d6b656;fontSize=13;" vertex="1" parent="1">
          <mxGeometry x="190" y="93" width="170" height="60" as="geometry" />
        </mxCell>
        <mxCell id="RuCP6XWzuwosa6Kexjt9-25" value="调用&lt;br style=&quot;font-size: 13px;&quot;&gt;$model-&amp;gt;getDocuments()&lt;br style=&quot;font-size: 13px;&quot;&gt;$model-&amp;gt;getAtatchments()" style="shape=note;whiteSpace=wrap;html=1;backgroundOutline=1;darkOpacity=0.05;size=18;fillColor=#fff2cc;strokeColor=#d6b656;fontSize=13;" vertex="1" parent="1">
          <mxGeometry x="504" y="307" width="170" height="60" as="geometry" />
        </mxCell>
      </root>
    </mxGraphModel>
  </diagram>
</mxfile>
